<?xml version="1.0" standalone="no"?>
<svg viewBox="0 0 200 200" xmlns="http://www.w3.org/2000/svg">
  <path fill="#9EF0F0" d="M34.1,-59.7C41.8,-54.7,43.8,-40.6,51.9,-29.1C60,-17.7,74.1,-8.8,80.8,3.9C87.6,16.6,86.9,33.2,80.2,47C73.5,60.9,60.7,72,46.4,77.9C32,83.8,16,84.5,2.1,80.9C-11.8,77.2,-23.6,69.3,-33.8,61C-44,52.7,-52.5,44,-59.8,33.8C-67,23.5,-72.8,11.8,-72.5,0.2C-72.1,-11.3,-65.5,-22.7,-56.9,-30.5C-48.3,-38.3,-37.7,-42.7,-27.9,-46.4C-18.1,-50.2,-9.1,-53.3,2.1,-57C13.2,-60.6,26.5,-64.7,34.1,-59.7Z" transform="translate(100 100)" />
</svg>
